<?xml version="1.0" encoding="utf-8"?>
<!-- Generator: Adobe Illustrator 19.2.1, SVG Export Plug-In . SVG Version: 6.00 Build 0)  -->
<svg version="1.1" id="Layer_1" xmlns="http://www.w3.org/2000/svg" xmlns:xlink="http://www.w3.org/1999/xlink" x="0px" y="0px"
	 width="24px" height="90px" viewBox="0 0 24 90" style="enable-background:new 0 0 24 90;" xml:space="preserve">
<style type="text/css">
	.st0{fill:#DC241F;}
</style>
<title>search--sprite</title>
<g id="Page-1">
	<g id="search--sprite">
		<path id="Shape" d="M16.1,15c2.1-3.3,1.2-7.7-2.1-9.8S6.4,4,4.2,7.3S3,15,6.3,17.1c2.3,1.5,5.3,1.5,7.7,0l0.3-0.2l5.1,5.1l1.6-1.6
			l-5.1-5.1L16.1,15L16.1,15z M14.2,7.2c2.2,2.2,2.2,5.8,0,8s-5.8,2.2-8,0s-2.2-5.8,0-8c1.1-1.1,2.5-1.7,4-1.7
			C11.7,5.6,13.2,6.2,14.2,7.2L14.2,7.2z"/>
		<path id="Shape-Copy-2" class="st0" d="M16.1,80c2.1-3.3,1.2-7.7-2.1-9.8C10.8,68,6.4,69,4.2,72.3C2.1,75.6,3,80,6.3,82.1
			c2.3,1.5,5.3,1.5,7.7,0l0.3-0.2l5.1,5.1l1.6-1.6l-5.1-5.1L16.1,80L16.1,80z M14.2,72.2c2.2,2.2,2.2,5.8,0,8s-5.8,2.2-8,0
			s-2.2-5.8,0-8c1.1-1.1,2.5-1.7,4-1.7C11.7,70.6,13.2,71.2,14.2,72.2L14.2,72.2z"/>
	</g>
</g>
</svg>
